PathFileType   4   (X/Y/Z)
DataRate	CameraRate	NumFrames	NumMarkers	Units	OrigDataRate	OrigDataStartFrame	OrigNumFrames
120.0	120.0	6	37	mm	120.0	42	110
Frame#	Time	midhip	hip_r	hip_l	knee_r	knee_l	ankle_r	ankle_l	midasis	asis_r	asis_l	psis_r	psis_l	epicondLat_r	epicondLat_l	epicondMed_r	epicondMed_l	malleolusLat_r	malleolusLat_l	malleolusMedv_r	malleolusMedv_l	neck	subclavicle_r	subclavicle_l	sternalnotch	xyphoidprocess	thighwand_r	thighwand_l	upperleg1_r	upperleg1_l	upperleg2_r	upperleg2_l	shankwand_r	shankwand_l	lowerleg1_r	lowerleg1_l	toe_r	toe_l
 	 	X1	Y1	Z1	X2	Y2	Z2	X3	Y3	Z3	X4	Y4	Z4	X5	Y5	Z5	X6	Y6	Z6	X7	Y7	Z7	X8	Y8	Z8	X9	Y9	Z9	X10	Y10	Z10	X11	Y11	Z11	X12	Y12	Z12	X13	Y13	Z13	X14	Y14	Z14	X15	Y15	Z15	X16	Y16	Z16	X17	Y17	Z17	X18	Y18	Z18	X19	Y19	Z19	X20	Y20	Z20	X21	Y21	Z21	X22	Y22	Z22	X23	Y23	Z23	X24	Y24	Z24	X25	Y25	Z25	X26	Y26	Z26	X27	Y27	Z27	X28	Y28	Z28	X29	Y29	Z29	X30	Y30	Z30	X31	Y31	Z31	X32	Y32	Z32	X33	Y33	Z33	X34	Y34	Z34	X35	Y35	Z35	X36	Y36	Z36	X37	Y37	Z37

	42	0.47500	381.109	818.600	-217.678	383.937	802.809	-156.851	375.939	795.025	-273.792	303.377	438.990	-175.279	553.081	468.130	-297.403	148.741	70.346	-191.485	664.154	78.676	-317.828	437.813	880.338	-218.713	436.211	885.636	-118.874	439.416	875.040	-318.553	278.621	907.724	-202.095	280.087	901.712	-256.379	312.482	434.237	-121.247	565.103	478.411	-349.556	299.373	441.741	-222.521	545.085	442.137	-255.612	140.560	72.126	-153.906	662.843	80.318	-356.271	169.049	77.417	-221.422	685.126	99.379	-294.781	361.923	1319.689	-198.487	459.231	1233.845	-172.654	440.226	1238.583	-277.808	435.730	1249.090	-227.319	468.859	1077.210	-240.056	477.942	585.815	-170.057	590.292	667.722	-256.168	414.698	645.745	-119.281	518.329	678.451	-324.506	391.407	563.118	-122.682	556.750	601.695	-322.823	183.782	180.837	-78.471	587.523	184.901	-411.382	188.566	188.025	-119.888	605.935	193.615	-371.539	256.125	39.924	-148.798	788.590	89.045	-345.227
	43	0.48333	392.882	817.229	-218.588	395.128	801.084	-157.692	387.944	793.523	-274.700	310.914	438.016	-175.646	564.829	466.984	-296.474	149.715	72.083	-191.300	679.274	78.057	-314.063	449.384	878.766	-219.029	447.089	883.865	-119.265	451.679	873.666	-318.793	290.032	906.031	-203.604	291.906	900.103	-257.945	319.629	433.320	-121.544	576.836	476.970	-348.689	307.221	440.745	-222.751	556.102	440.906	-255.279	141.415	74.133	-153.761	678.033	79.431	-352.519	169.991	78.884	-221.304	699.899	99.249	-291.102	372.250	1318.127	-199.065	469.752	1232.542	-173.418	450.590	1237.207	-278.570	446.187	1247.784	-228.075	479.648	1075.910	-240.799	487.227	583.417	-169.701	602.367	666.549	-256.367	423.820	644.035	-119.627	530.582	677.199	-324.788	399.691	561.726	-122.773	568.606	600.197	-322.923	186.344	182.433	-78.566	601.961	183.148	-408.401	191.347	189.389	-120.067	620.123	192.462	-368.566	256.407	40.013	-148.526	803.860	89.088	-340.998
	44	0.49167	404.684	815.862	-219.713	406.427	799.471	-158.583	400.036	792.136	-275.651	318.997	437.034	-175.967	576.659	465.962	-295.526	150.852	74.136	-190.998	692.615	77.120	-310.266	461.103	877.266	-219.401	458.134	882.170	-119.717	464.072	872.362	-319.085	301.627	904.504	-205.189	303.894	898.686	-259.613	327.283	432.437	-121.789	588.689	475.661	-347.789	315.708	439.898	-223.173	568.391	440.023	-254.083	142.431	76.484	-153.504	691.447	78.230	-348.732	171.268	80.682	-221.066	712.936	98.452	-287.334	382.591	1316.663	-199.730	480.601	1231.372	-174.159	461.106	1235.897	-279.307	456.724	1246.565	-228.900	490.880	1074.734	-241.488	496.920	581.159	-169.215	614.465	665.566	-256.475	433.267	642.441	-119.830	542.655	675.813	-325.132	408.387	560.498	-122.828	580.754	598.913	-322.735	189.178	184.326	-78.577	615.129	181.411	-405.347	194.356	191.011	-120.171	633.024	191.168	-365.479	256.735	40.132	-148.198	817.302	88.114	-336.674
	45	0.50000	416.595	814.571	-221.023	417.860	797.986	-159.523	412.219	790.888	-276.645	327.635	436.042	-176.218	588.548	465.046	-294.555	152.183	76.530	-190.564	704.263	75.908	-306.508	472.984	875.861	-219.833	469.378	880.566	-120.232	476.589	871.156	-319.434	313.421	903.163	-206.825	316.050	897.483	-261.343	335.469	431.586	-121.962	600.656	474.472	-346.850	324.809	439.378	-224.475	583.409	439.549	-252.746	143.639	79.205	-153.119	703.165	76.763	-344.983	172.741	82.765	-220.731	724.256	97.038	-283.570	392.982	1315.291	-200.513	491.315	1230.312	-174.964	471.760	1234.734	-280.176	467.346	1245.459	-229.790	502.094	1073.685	-242.272	507.005	579.036	-168.631	626.564	664.796	-256.446	442.945	640.902	-119.864	553.297	674.619	-325.430	417.336	559.246	-123.081	592.994	597.844	-322.579	192.311	186.534	-78.486	627.076	179.711	-402.262	197.629	192.885	-120.212	644.700	189.640	-362.339	257.128	40.285	-147.815	828.982	86.095	-332.292
	46	0.50833	428.692	813.450	-222.459	429.452	796.643	-160.515	424.496	789.801	-277.683	336.843	435.037	-176.378	600.481	464.231	-293.549	153.746	79.289	-189.979	714.328	74.502	-302.894	485.030	874.576	-220.331	480.843	879.070	-120.812	489.217	870.082	-319.849	325.415	902.018	-208.478	328.361	896.499	-263.094	344.224	430.764	-122.044	612.730	473.401	-345.857	333.256	439.504	-226.417	602.433	440.034	-251.122	145.081	82.320	-152.590	713.307	75.126	-341.375	174.225	85.156	-220.225	733.926	95.086	-279.770	403.411	1314.017	-201.485	501.914	1229.371	-175.902	482.549	1233.774	-281.282	478.068	1244.495	-230.736	513.331	1072.807	-243.307	517.471	577.052	-167.985	638.658	664.252	-256.251	452.855	639.312	-119.866	561.526	674.078	-325.337	425.933	557.787	-123.520	605.428	597.017	-322.259	195.782	189.078	-78.272	637.907	178.124	-399.228	201.259	195.017	-120.093	655.169	187.824	-359.162	257.609	40.480	-147.378	839.001	83.059	-327.883
	47	0.51667	440.878	812.416	-223.994	441.228	795.452	-161.564	436.872	788.896	-278.772	346.653	434.018	-176.430	612.451	463.535	-292.495	155.589	82.443	-189.227	722.942	73.008	-299.554	497.236	873.441	-220.904	492.541	877.702	-121.465	501.931	869.179	-320.343	337.586	901.061	-210.118	340.802	895.728	-264.822	353.594	429.964	-122.020	624.914	472.466	-344.794	339.466	440.773	-227.956	614.015	439.451	-250.358	146.804	85.859	-151.899	722.033	73.446	-338.041	175.886	87.993	-219.539	741.905	92.763	-275.853	413.852	1312.878	-202.637	512.683	1228.598	-176.912	493.413	1233.047	-282.476	489.046	1243.763	-231.702	524.812	1072.161	-244.557	528.335	575.225	-167.314	650.749	663.941	-255.866	463.299	637.840	-120.005	574.227	673.420	-325.237	433.720	556.136	-123.924	617.801	596.322	-321.817	199.638	191.979	-77.917	647.798	176.776	-396.367	205.266	197.448	-119.778	664.409	185.779	-355.985	258.200	40.726	-146.892	847.489	79.095	-323.479
